<?xml version="1.0" encoding="UTF-8" standalone="no"?>
<!DOCTYPE svg PUBLIC "-//W3C//DTD SVG 1.1//EN" "http://www.w3.org/Graphics/SVG/1.1/DTD/svg11.dtd">
<svg width="100%" height="100%" viewBox="0 0 544 300" version="1.1" xmlns="http://www.w3.org/2000/svg" xmlns:xlink="http://www.w3.org/1999/xlink" xml:space="preserve" xmlns:serif="http://www.serif.com/" style="fill-rule:evenodd;clip-rule:evenodd;stroke-linejoin:round;stroke-miterlimit:2;">
    <g id="version-2" serif:id="version 2" transform="matrix(0.453333,0,0,0.453172,-196.293,-19.0332)">
        <g id="bg-2" serif:id="bg 2">
            <g transform="matrix(1,0,0,4.38614,433,78.9703)">
                <rect x="-20" y="-31" width="1356" height="202"/>
            </g>
            <g transform="matrix(1,0,0,0.93578,433,-15.1743)">
                <rect x="-22" y="153" width="1343" height="545" style="fill:white;"/>
            </g>
        </g>
        <g id="bg-1" serif:id="bg 1" transform="matrix(1,0,0,1,433,-25)">
            <rect x="-91" y="-54" width="1487" height="959" style="fill:white;"/>
        </g>
        <g id="logo-w--text" serif:id="logo w/ text">
            <path d="M828,137L827,94C827,94 806.385,77.144 791,77C775.615,76.856 502,77 502,77C502,77 465.662,85.399 465,97C464.338,108.601 465,137 465,137L487,137L483,153L491,166C491,166 464.039,181.721 463,193C461.961,204.279 463.872,612.817 464,630C464.128,647.183 486.393,663.986 496,664C505.607,664.014 782.375,667.132 795,667C807.625,666.868 828.591,646.509 830,632C831.409,617.491 830.943,207.433 830,194C829.057,180.567 802,168 802,168C802,168 809.582,152.917 809,153C808.585,153.059 804,137 804,137L828,137Z" style="fill:rgb(230,13,13);"/>
            <g transform="matrix(1.97827,0,0,2.07869,-622.487,-248.745)">
                <g transform="matrix(69.2743,0,0,69.2743,575.944,271.866)">
                    <path d="M0.083,0L0.083,-0.75L0.417,-0.75C0.462,-0.75 0.501,-0.733 0.534,-0.701C0.567,-0.668 0.583,-0.628 0.583,-0.583L0.583,-0.538C0.583,-0.501 0.57,-0.465 0.545,-0.431C0.52,-0.396 0.477,-0.379 0.417,-0.379L0.5,-0.379C0.523,-0.379 0.542,-0.371 0.559,-0.355C0.575,-0.338 0.583,-0.318 0.583,-0.295L0.583,0L0.417,0L0.417,-0.25C0.417,-0.273 0.409,-0.292 0.393,-0.309C0.376,-0.325 0.356,-0.333 0.333,-0.333L0.25,-0.333L0.25,0L0.083,0ZM0.25,-0.417L0.333,-0.417C0.356,-0.417 0.376,-0.425 0.393,-0.442C0.409,-0.458 0.417,-0.477 0.417,-0.5L0.417,-0.583C0.417,-0.606 0.409,-0.626 0.393,-0.643C0.376,-0.659 0.356,-0.667 0.333,-0.667L0.25,-0.667L0.25,-0.417Z" style="fill:white;fill-rule:nonzero;"/>
                </g>
                <g transform="matrix(69.2743,0,0,69.2743,622.15,271.866)">
                    <path d="M0.083,0L0.083,-0.75L0.5,-0.75L0.5,-0.667L0.25,-0.667L0.25,-0.417L0.417,-0.417L0.417,-0.333L0.25,-0.333L0.25,-0.083L0.5,-0.083L0.5,0L0.083,0Z" style="fill:white;fill-rule:nonzero;"/>
                </g>
                <g transform="matrix(69.2743,0,0,69.2743,662.537,271.866)">
                    <path d="M0.083,0L0.083,-0.75L0.417,-0.75C0.462,-0.75 0.501,-0.733 0.534,-0.701C0.567,-0.668 0.583,-0.628 0.583,-0.583L0.583,-0.167C0.583,-0.122 0.567,-0.083 0.534,-0.05C0.501,-0.017 0.462,0 0.417,0L0.083,0ZM0.25,-0.083L0.333,-0.083C0.356,-0.083 0.376,-0.091 0.393,-0.108C0.409,-0.125 0.417,-0.144 0.417,-0.167L0.417,-0.583C0.417,-0.606 0.409,-0.626 0.393,-0.643C0.376,-0.659 0.356,-0.667 0.333,-0.667L0.25,-0.667L0.25,-0.083Z" style="fill:white;fill-rule:nonzero;"/>
                </g>
                <g transform="matrix(69.2743,0,0,69.2743,564.41,416.187)">
                    <path d="M0.5,-0.75L0.5,-0.167C0.5,-0.111 0.486,-0.069 0.459,-0.042C0.431,-0.014 0.389,0 0.333,0L0.167,0C0.111,0 0.069,-0.014 0.042,-0.042C0.014,-0.069 0,-0.111 0,-0.167L0,-0.333L0.167,-0.333L0.167,-0.167C0.167,-0.144 0.175,-0.124 0.192,-0.108C0.208,-0.091 0.227,-0.083 0.25,-0.083C0.273,-0.083 0.292,-0.091 0.309,-0.108C0.325,-0.124 0.333,-0.144 0.333,-0.167L0.333,-0.75L0.5,-0.75Z" style="fill:white;fill-rule:nonzero;"/>
                </g>
                <g transform="matrix(69.2743,0,0,69.2743,604.797,416.187)">
                    <path d="M0.083,0L0.083,-0.583C0.083,-0.629 0.099,-0.668 0.133,-0.701C0.166,-0.734 0.205,-0.75 0.25,-0.75L0.417,-0.75C0.462,-0.75 0.501,-0.733 0.534,-0.701C0.567,-0.668 0.583,-0.628 0.583,-0.583L0.583,0L0.417,0L0.417,-0.333L0.25,-0.333L0.25,0L0.083,0ZM0.25,-0.417L0.417,-0.417L0.417,-0.583C0.417,-0.606 0.409,-0.626 0.393,-0.643C0.376,-0.659 0.356,-0.667 0.333,-0.667C0.31,-0.667 0.291,-0.659 0.275,-0.643C0.258,-0.626 0.25,-0.606 0.25,-0.583L0.25,-0.417Z" style="fill:white;fill-rule:nonzero;"/>
                </g>
                <g transform="matrix(69.2743,0,0,69.2743,651.003,416.187)">
                    <path d="M0.083,0L0.083,-0.75L0.122,-0.75L0.478,-0.395L0.833,-0.75L0.917,-0.75L0.917,0L0.75,0L0.75,-0.458L0.458,-0.166L0.167,-0.458L0.167,0L0.083,0Z" style="fill:white;fill-rule:nonzero;"/>
                </g>
            </g>
            <g transform="matrix(1.23688,0,0,1.23688,-156.136,-71.1417)">
                <g transform="matrix(-1,0,0,1,1285.38,0)">
                    <path d="M635,354C635.485,354 635.71,421 635,421C602.29,421 589,413 589,413C589,413 592.265,410.41 574,434C555.735,457.59 513.208,448.899 528,412C542.792,375.101 552.126,352.591 570,343C572.73,341.535 580.884,343.28 580.884,343.28C580.884,343.28 582.677,339.146 584.465,339.269C588.501,339.546 608.418,343.258 612.103,344.944C613.52,345.592 613.572,351.384 613.572,351.384C613.572,351.384 629.004,354 635,354Z" style="fill:white;"/>
                </g>
                <g transform="matrix(1,0,0,1,16,0)">
                    <path d="M635,354C635.485,354 635.71,421 635,421C602.29,421 589,413 589,413C589,413 592.265,410.41 574,434C555.735,457.59 513.208,448.899 528,412C542.792,375.101 552.126,352.591 570,343C572.73,341.535 580.884,343.28 580.884,343.28C580.884,343.28 582.677,339.146 584.465,339.269C588.501,339.546 608.418,343.258 612.103,344.944C613.52,345.592 613.572,351.384 613.572,351.384C613.572,351.384 629.004,354 635,354Z" style="fill:white;"/>
                </g>
                <g id="ABXY" transform="matrix(1.24474,0,0,1.24474,-171.454,-97.6555)">
                    <path d="M705,367C707.667,367 711,370 711,373C711,376 707.667,379 705,379C702.333,379 699,376 699,373C699,370 702.333,367 705,367Z" style="fill:rgb(230,13,13);"/>
                    <g transform="matrix(1,0,0,1,0,20)">
                        <path d="M705,367C707.667,367 711,370 711,373C711,376 707.667,379 705,379C702.333,379 699,376 699,373C699,370 702.333,367 705,367Z" style="fill:rgb(230,13,13);"/>
                    </g>
                    <g transform="matrix(6.12323e-17,-1,1,6.12323e-17,322,1088)">
                        <path d="M705,367C707.667,367 711,370 711,373C711,376 707.667,379 705,379C702.333,379 699,376 699,373C699,370 702.333,367 705,367Z" style="fill:rgb(230,13,13);"/>
                    </g>
                    <g transform="matrix(6.12323e-17,-1,1,6.12323e-17,342,1088)">
                        <path d="M705,367C707.667,367 711,370 711,373C711,376 707.667,379 705,379C702.333,379 699,376 699,373C699,370 702.333,367 705,367Z" style="fill:rgb(230,13,13);"/>
                    </g>
                </g>
                <g transform="matrix(1.24474,0,0,1.24474,-141.454,-97.6555)">
                    <path d="M593,369C599.258,369 599,370.34 599,374L599,395C599,399.127 596.752,399 593,399C589.248,399 587,399.586 587,395L587,374C587,369.433 587.742,369 593,369Z" style="fill:rgb(230,13,13);"/>
                    <g transform="matrix(6.12323e-17,-1,1,6.12323e-17,208.989,977.013)">
                        <path d="M593,369C599.258,369 599,370.34 599,374L599,395C599,399.127 596.752,399 593,399C589.248,399 587,399.586 587,395L587,374C587,369.433 587.742,369 593,369Z" style="fill:rgb(230,13,13);"/>
                    </g>
                </g>
            </g>
            <g transform="matrix(1,0,0,0.964488,418,-19.5893)">
                <g transform="matrix(0.887926,0,0,1.486,59.1689,98.6998)">
                    <g transform="matrix(0.951689,0,0,1,20.4533,0)">
                        <g transform="matrix(164,0,0,164,423.364,377.214)">
                            <path d="M0.333,-0.417L0.583,-0.417L0.583,-0.167C0.583,-0.111 0.565,-0.069 0.53,-0.042C0.495,-0.014 0.457,0 0.417,0L0.25,0C0.205,0 0.166,-0.016 0.133,-0.049C0.099,-0.082 0.083,-0.121 0.083,-0.167L0.083,-0.583C0.083,-0.628 0.099,-0.668 0.132,-0.701C0.164,-0.733 0.203,-0.75 0.25,-0.75L0.417,-0.75C0.522,-0.75 0.577,-0.694 0.583,-0.583L0.5,-0.583C0.493,-0.639 0.466,-0.667 0.417,-0.667L0.333,-0.667C0.31,-0.667 0.291,-0.659 0.275,-0.643C0.258,-0.626 0.25,-0.606 0.25,-0.583L0.25,-0.167C0.25,-0.144 0.258,-0.124 0.275,-0.108C0.291,-0.091 0.31,-0.083 0.333,-0.083C0.386,-0.086 0.414,-0.114 0.417,-0.167L0.417,-0.333L0.333,-0.333L0.333,-0.417Z" style="fill-rule:nonzero;"/>
                        </g>
                        <g transform="matrix(164,0,0,164,532.752,377.214)">
                            <path d="M0.083,0L0.083,-0.583C0.083,-0.629 0.099,-0.668 0.133,-0.701C0.166,-0.734 0.205,-0.75 0.25,-0.75L0.417,-0.75C0.462,-0.75 0.501,-0.733 0.534,-0.701C0.567,-0.668 0.583,-0.628 0.583,-0.583L0.583,0L0.417,0L0.417,-0.333L0.25,-0.333L0.25,0L0.083,0ZM0.25,-0.417L0.417,-0.417L0.417,-0.583C0.417,-0.606 0.409,-0.626 0.393,-0.643C0.376,-0.659 0.356,-0.667 0.333,-0.667C0.31,-0.667 0.291,-0.659 0.275,-0.643C0.258,-0.626 0.25,-0.606 0.25,-0.583L0.25,-0.417Z" style="fill-rule:nonzero;"/>
                        </g>
                        <g transform="matrix(164,0,0,164,642.14,377.214)">
                            <path d="M0.083,0L0.083,-0.75L0.122,-0.75L0.478,-0.395L0.833,-0.75L0.917,-0.75L0.917,0L0.75,0L0.75,-0.458L0.458,-0.166L0.167,-0.458L0.167,0L0.083,0Z" style="fill-rule:nonzero;"/>
                        </g>
                        <g transform="matrix(164,0,0,164,806.14,377.214)">
                            <path d="M0.083,0L0.083,-0.75L0.5,-0.75L0.5,-0.667L0.25,-0.667L0.25,-0.417L0.417,-0.417L0.417,-0.333L0.25,-0.333L0.25,-0.083L0.5,-0.083L0.5,0L0.083,0Z" style="fill-rule:nonzero;"/>
                        </g>
                    </g>
                    <g transform="matrix(0.951689,0,0,1,44.3334,0)">
                        <g transform="matrix(164,0,0,164,917.66,377.214)">
                            <path d="M0.5,-0.75L0.5,-0.167C0.5,-0.111 0.486,-0.069 0.459,-0.042C0.431,-0.014 0.389,0 0.333,0L0.167,0C0.111,0 0.069,-0.014 0.042,-0.042C0.014,-0.069 0,-0.111 0,-0.167L0,-0.333L0.167,-0.333L0.167,-0.167C0.167,-0.144 0.175,-0.124 0.192,-0.108C0.208,-0.091 0.227,-0.083 0.25,-0.083C0.273,-0.083 0.292,-0.091 0.309,-0.108C0.325,-0.124 0.333,-0.144 0.333,-0.167L0.333,-0.75L0.5,-0.75Z" style="fill:rgb(230,13,13);fill-rule:nonzero;"/>
                        </g>
                        <g transform="matrix(164,0,0,164,1013.27,377.214)">
                            <path d="M0.083,0L0.083,-0.583C0.083,-0.629 0.099,-0.668 0.133,-0.701C0.166,-0.734 0.205,-0.75 0.25,-0.75L0.417,-0.75C0.462,-0.75 0.501,-0.733 0.534,-0.701C0.567,-0.668 0.583,-0.628 0.583,-0.583L0.583,0L0.417,0L0.417,-0.333L0.25,-0.333L0.25,0L0.083,0ZM0.25,-0.417L0.417,-0.417L0.417,-0.583C0.417,-0.606 0.409,-0.626 0.393,-0.643C0.376,-0.659 0.356,-0.667 0.333,-0.667C0.31,-0.667 0.291,-0.659 0.275,-0.643C0.258,-0.626 0.25,-0.606 0.25,-0.583L0.25,-0.417Z" style="fill:rgb(230,13,13);fill-rule:nonzero;"/>
                        </g>
                        <g transform="matrix(164,0,0,164,1122.66,377.214)">
                            <path d="M0.083,0L0.083,-0.75L0.122,-0.75L0.478,-0.395L0.833,-0.75L0.917,-0.75L0.917,0L0.75,0L0.75,-0.458L0.458,-0.166L0.167,-0.458L0.167,0L0.083,0Z" style="fill:rgb(230,13,13);fill-rule:nonzero;"/>
                        </g>
                    </g>
                </g>
                <g transform="matrix(1.51567,0,0,1.37375,-366.24,108.136)">
                    <g transform="matrix(72,0,0,72,528.201,106.695)">
                        <path d="M0.083,0L0.083,-0.75L0.417,-0.75C0.462,-0.75 0.501,-0.733 0.534,-0.701C0.567,-0.668 0.583,-0.628 0.583,-0.583L0.583,-0.538C0.583,-0.501 0.57,-0.465 0.545,-0.431C0.52,-0.396 0.477,-0.379 0.417,-0.379L0.5,-0.379C0.523,-0.379 0.542,-0.371 0.559,-0.355C0.575,-0.338 0.583,-0.318 0.583,-0.295L0.583,0L0.417,0L0.417,-0.25C0.417,-0.273 0.409,-0.292 0.393,-0.309C0.376,-0.325 0.356,-0.333 0.333,-0.333L0.25,-0.333L0.25,0L0.083,0ZM0.25,-0.417L0.333,-0.417C0.356,-0.417 0.376,-0.425 0.393,-0.442C0.409,-0.458 0.417,-0.477 0.417,-0.5L0.417,-0.583C0.417,-0.606 0.409,-0.626 0.393,-0.643C0.376,-0.659 0.356,-0.667 0.333,-0.667L0.25,-0.667L0.25,-0.417Z" style="fill:rgb(230,13,13);fill-rule:nonzero;"/>
                    </g>
                    <g transform="matrix(72,0,0,72,576.225,106.695)">
                        <path d="M0.083,0L0.083,-0.75L0.5,-0.75L0.5,-0.667L0.25,-0.667L0.25,-0.417L0.417,-0.417L0.417,-0.333L0.25,-0.333L0.25,-0.083L0.5,-0.083L0.5,0L0.083,0Z" style="fill:rgb(230,13,13);fill-rule:nonzero;"/>
                    </g>
                    <g transform="matrix(72,0,0,72,618.201,106.695)">
                        <path d="M0.083,0L0.083,-0.75L0.417,-0.75C0.462,-0.75 0.501,-0.733 0.534,-0.701C0.567,-0.668 0.583,-0.628 0.583,-0.583L0.583,-0.167C0.583,-0.122 0.567,-0.083 0.534,-0.05C0.501,-0.017 0.462,0 0.417,0L0.083,0ZM0.25,-0.083L0.333,-0.083C0.356,-0.083 0.376,-0.091 0.393,-0.108C0.409,-0.125 0.417,-0.144 0.417,-0.167L0.417,-0.583C0.417,-0.606 0.409,-0.626 0.393,-0.643C0.376,-0.659 0.356,-0.667 0.333,-0.667L0.25,-0.667L0.25,-0.083Z" style="fill:rgb(230,13,13);fill-rule:nonzero;"/>
                    </g>
                    <g transform="matrix(72,0,0,72,666.225,106.695)">
                        <path d="M0.083,0L0.083,-0.75L0.122,-0.75L0.478,-0.395L0.833,-0.75L0.917,-0.75L0.917,0L0.75,0L0.75,-0.458L0.458,-0.166L0.167,-0.458L0.167,0L0.083,0Z" style="fill-rule:nonzero;"/>
                    </g>
                    <g transform="matrix(72,0,0,72,738.225,106.695)">
                        <path d="M0.25,-0.75L0.417,-0.75C0.462,-0.75 0.501,-0.733 0.534,-0.701C0.567,-0.668 0.583,-0.628 0.583,-0.583L0.583,-0.167C0.583,-0.122 0.567,-0.083 0.534,-0.05C0.501,-0.017 0.462,0 0.417,0L0.25,0C0.205,0 0.166,-0.016 0.133,-0.049C0.099,-0.082 0.083,-0.121 0.083,-0.167L0.083,-0.583C0.083,-0.629 0.099,-0.668 0.133,-0.701C0.166,-0.734 0.205,-0.75 0.25,-0.75ZM0.25,-0.583L0.25,-0.167C0.25,-0.144 0.258,-0.125 0.275,-0.108C0.291,-0.091 0.31,-0.083 0.333,-0.083C0.356,-0.083 0.376,-0.091 0.393,-0.108C0.409,-0.125 0.417,-0.144 0.417,-0.167L0.417,-0.583C0.417,-0.606 0.409,-0.626 0.393,-0.643C0.376,-0.659 0.356,-0.667 0.333,-0.667C0.31,-0.667 0.291,-0.659 0.275,-0.643C0.258,-0.626 0.25,-0.606 0.25,-0.583Z" style="fill-rule:nonzero;"/>
                    </g>
                    <g transform="matrix(72,0,0,72,786.249,106.695)">
                        <path d="M0.083,0L0.083,-0.75L0.122,-0.75L0.583,-0.333L0.583,-0.75L0.667,-0.75L0.667,0L0.629,0L0.167,-0.417L0.167,0L0.083,0Z" style="fill-rule:nonzero;"/>
                    </g>
                    <g transform="matrix(72,0,0,72,840.249,106.695)">
                        <path d="M0.083,0L0.083,-0.75L0.417,-0.75C0.462,-0.75 0.501,-0.733 0.534,-0.701C0.567,-0.668 0.583,-0.628 0.583,-0.583L0.583,-0.167C0.583,-0.122 0.567,-0.083 0.534,-0.05C0.501,-0.017 0.462,0 0.417,0L0.083,0ZM0.25,-0.083L0.333,-0.083C0.356,-0.083 0.376,-0.091 0.393,-0.108C0.409,-0.125 0.417,-0.144 0.417,-0.167L0.417,-0.583C0.417,-0.606 0.409,-0.626 0.393,-0.643C0.376,-0.659 0.356,-0.667 0.333,-0.667L0.25,-0.667L0.25,-0.083Z" style="fill-rule:nonzero;"/>
                    </g>
                    <g transform="matrix(72,0,0,72,528.201,178.695)">
                        <path d="M0.083,0L0.083,-0.75L0.5,-0.75L0.5,-0.667L0.25,-0.667L0.25,-0.417L0.417,-0.417L0.417,-0.333L0.25,-0.333L0.25,-0.083L0.5,-0.083L0.5,0L0.083,0Z" style="fill:rgb(230,13,13);fill-rule:nonzero;"/>
                    </g>
                    <g transform="matrix(72,0,0,72,570.177,178.695)">
                        <path d="M0.083,0L0.083,-0.583C0.083,-0.629 0.099,-0.668 0.133,-0.701C0.166,-0.734 0.205,-0.75 0.25,-0.75L0.417,-0.75C0.462,-0.75 0.501,-0.733 0.534,-0.701C0.567,-0.668 0.583,-0.628 0.583,-0.583L0.583,0L0.417,0L0.417,-0.333L0.25,-0.333L0.25,0L0.083,0ZM0.25,-0.417L0.417,-0.417L0.417,-0.583C0.417,-0.606 0.409,-0.626 0.393,-0.643C0.376,-0.659 0.356,-0.667 0.333,-0.667C0.31,-0.667 0.291,-0.659 0.275,-0.643C0.258,-0.626 0.25,-0.606 0.25,-0.583L0.25,-0.417Z" style="fill-rule:nonzero;"/>
                    </g>
                    <g transform="matrix(72,0,0,72,618.201,178.695)">
                        <path d="M0.5,-0.583L0.417,-0.583C0.41,-0.639 0.383,-0.667 0.338,-0.667C0.309,-0.667 0.287,-0.66 0.272,-0.646C0.257,-0.632 0.25,-0.611 0.25,-0.583C0.25,-0.562 0.258,-0.543 0.274,-0.524L0.451,-0.326C0.484,-0.289 0.5,-0.25 0.5,-0.208L0.5,-0.167C0.5,-0.122 0.484,-0.083 0.451,-0.05C0.418,-0.017 0.379,0 0.333,0L0.25,0C0.195,0 0.153,-0.014 0.125,-0.042C0.097,-0.069 0.083,-0.111 0.083,-0.167L0.167,-0.167L0.167,-0.153C0.167,-0.13 0.176,-0.113 0.193,-0.101C0.21,-0.089 0.229,-0.083 0.25,-0.083C0.279,-0.083 0.301,-0.09 0.314,-0.105C0.327,-0.119 0.333,-0.14 0.333,-0.167C0.333,-0.188 0.325,-0.208 0.309,-0.226L0.132,-0.424C0.099,-0.46 0.083,-0.499 0.083,-0.542L0.083,-0.583C0.083,-0.628 0.099,-0.668 0.132,-0.701C0.165,-0.733 0.204,-0.75 0.25,-0.75L0.333,-0.75C0.438,-0.75 0.493,-0.694 0.5,-0.583Z" style="fill-rule:nonzero;"/>
                    </g>
                    <g transform="matrix(72,0,0,72,660.177,178.695)">
                        <path d="M0.167,0L0.167,-0.667L0,-0.667L0,-0.75L0.5,-0.75L0.5,-0.667L0.333,-0.667L0.333,0L0.167,0Z" style="fill-rule:nonzero;"/>
                    </g>
                    <g transform="matrix(72,0,0,72,696.177,178.695)">
                        <path d="M0.5,-0.583L0.417,-0.583C0.41,-0.639 0.383,-0.667 0.338,-0.667C0.309,-0.667 0.287,-0.66 0.272,-0.646C0.257,-0.632 0.25,-0.611 0.25,-0.583C0.25,-0.562 0.258,-0.543 0.274,-0.524L0.451,-0.326C0.484,-0.289 0.5,-0.25 0.5,-0.208L0.5,-0.167C0.5,-0.122 0.484,-0.083 0.451,-0.05C0.418,-0.017 0.379,0 0.333,0L0.25,0C0.195,0 0.153,-0.014 0.125,-0.042C0.097,-0.069 0.083,-0.111 0.083,-0.167L0.167,-0.167L0.167,-0.153C0.167,-0.13 0.176,-0.113 0.193,-0.101C0.21,-0.089 0.229,-0.083 0.25,-0.083C0.279,-0.083 0.301,-0.09 0.314,-0.105C0.327,-0.119 0.333,-0.14 0.333,-0.167C0.333,-0.188 0.325,-0.208 0.309,-0.226L0.132,-0.424C0.099,-0.46 0.083,-0.499 0.083,-0.542L0.083,-0.583C0.083,-0.628 0.099,-0.668 0.132,-0.701C0.165,-0.733 0.204,-0.75 0.25,-0.75L0.333,-0.75C0.438,-0.75 0.493,-0.694 0.5,-0.583Z" style="fill-rule:nonzero;"/>
                    </g>
                    <g transform="matrix(72,0,0,72,738.153,178.695)">
                        <rect x="0.167" y="-0.75" width="0.166" height="0.75" style="fill-rule:nonzero;"/>
                    </g>
                    <g transform="matrix(72,0,0,72,774.153,178.695)">
                        <path d="M0.083,0L0.083,-0.75L0.417,-0.75C0.462,-0.75 0.501,-0.733 0.534,-0.701C0.567,-0.668 0.583,-0.628 0.583,-0.583L0.583,-0.167C0.583,-0.122 0.567,-0.083 0.534,-0.05C0.501,-0.017 0.462,0 0.417,0L0.083,0ZM0.25,-0.083L0.333,-0.083C0.356,-0.083 0.376,-0.091 0.393,-0.108C0.409,-0.125 0.417,-0.144 0.417,-0.167L0.417,-0.583C0.417,-0.606 0.409,-0.626 0.393,-0.643C0.376,-0.659 0.356,-0.667 0.333,-0.667L0.25,-0.667L0.25,-0.083Z" style="fill-rule:nonzero;"/>
                    </g>
                    <g transform="matrix(72,0,0,72,822.177,178.695)">
                        <path d="M0.083,0L0.083,-0.75L0.5,-0.75L0.5,-0.667L0.25,-0.667L0.25,-0.417L0.417,-0.417L0.417,-0.333L0.25,-0.333L0.25,-0.083L0.5,-0.083L0.5,0L0.083,0Z" style="fill-rule:nonzero;"/>
                    </g>
                    <g transform="matrix(72,0,0,72,528.201,250.695)">
                        <path d="M0.083,0L0.083,-0.75L0.417,-0.75C0.462,-0.75 0.501,-0.733 0.534,-0.701C0.567,-0.668 0.583,-0.628 0.583,-0.583L0.583,-0.167C0.583,-0.122 0.567,-0.083 0.534,-0.05C0.501,-0.017 0.462,0 0.417,0L0.083,0ZM0.25,-0.083L0.333,-0.083C0.356,-0.083 0.376,-0.091 0.393,-0.108C0.409,-0.125 0.417,-0.144 0.417,-0.167L0.417,-0.583C0.417,-0.606 0.409,-0.626 0.393,-0.643C0.376,-0.659 0.356,-0.667 0.333,-0.667L0.25,-0.667L0.25,-0.083Z" style="fill:rgb(230,13,13);fill-rule:nonzero;"/>
                    </g>
                    <g transform="matrix(72,0,0,72,576.225,250.695)">
                        <path d="M0.083,0L0.083,-0.75L0.5,-0.75L0.5,-0.667L0.25,-0.667L0.25,-0.417L0.417,-0.417L0.417,-0.333L0.25,-0.333L0.25,-0.083L0.5,-0.083L0.5,0L0.083,0Z" style="fill-rule:nonzero;"/>
                    </g>
                    <g transform="matrix(72,0,0,72,618.201,250.695)">
                        <path d="M0.417,-0.75L0.583,-0.75L0.583,-0.285C0.583,-0.207 0.555,-0.14 0.5,-0.084C0.444,-0.028 0.377,0 0.299,0L0.083,0L0.083,-0.75L0.25,-0.75L0.25,-0.083L0.333,-0.083C0.356,-0.083 0.376,-0.091 0.393,-0.108C0.409,-0.125 0.417,-0.144 0.417,-0.167L0.417,-0.75Z" style="fill-rule:nonzero;"/>
                    </g>
                    <g transform="matrix(72,0,0,72,666.225,250.695)">
                        <path d="M0.083,0L0.083,-0.75L0.5,-0.75L0.5,-0.667L0.25,-0.667L0.25,-0.417L0.417,-0.417L0.417,-0.333L0.25,-0.333L0.25,-0.083L0.5,-0.083L0.5,0L0.083,0Z" style="fill-rule:nonzero;"/>
                    </g>
                    <g transform="matrix(72,0,0,72,708.201,250.695)">
                        <path d="M0.083,0L0.083,-0.75L0.25,-0.75L0.25,-0.083L0.5,-0.083L0.5,0L0.083,0Z" style="fill-rule:nonzero;"/>
                    </g>
                    <g transform="matrix(72,0,0,72,750.177,250.695)">
                        <path d="M0.25,-0.75L0.417,-0.75C0.462,-0.75 0.501,-0.733 0.534,-0.701C0.567,-0.668 0.583,-0.628 0.583,-0.583L0.583,-0.167C0.583,-0.122 0.567,-0.083 0.534,-0.05C0.501,-0.017 0.462,0 0.417,0L0.25,0C0.205,0 0.166,-0.016 0.133,-0.049C0.099,-0.082 0.083,-0.121 0.083,-0.167L0.083,-0.583C0.083,-0.629 0.099,-0.668 0.133,-0.701C0.166,-0.734 0.205,-0.75 0.25,-0.75ZM0.25,-0.583L0.25,-0.167C0.25,-0.144 0.258,-0.125 0.275,-0.108C0.291,-0.091 0.31,-0.083 0.333,-0.083C0.356,-0.083 0.376,-0.091 0.393,-0.108C0.409,-0.125 0.417,-0.144 0.417,-0.167L0.417,-0.583C0.417,-0.606 0.409,-0.626 0.393,-0.643C0.376,-0.659 0.356,-0.667 0.333,-0.667C0.31,-0.667 0.291,-0.659 0.275,-0.643C0.258,-0.626 0.25,-0.606 0.25,-0.583Z" style="fill-rule:nonzero;"/>
                    </g>
                    <g transform="matrix(72,0,0,72,798.201,250.695)">
                        <path d="M0.083,0L0.083,-0.75L0.417,-0.75C0.462,-0.75 0.501,-0.733 0.534,-0.701C0.567,-0.668 0.583,-0.628 0.583,-0.583L0.583,-0.5C0.583,-0.455 0.567,-0.416 0.534,-0.383C0.501,-0.349 0.462,-0.333 0.417,-0.333L0.25,-0.333L0.25,0L0.083,0ZM0.25,-0.417L0.333,-0.417C0.356,-0.417 0.376,-0.425 0.393,-0.442C0.409,-0.458 0.417,-0.477 0.417,-0.5L0.417,-0.583C0.417,-0.606 0.409,-0.626 0.393,-0.643C0.376,-0.659 0.356,-0.667 0.333,-0.667L0.25,-0.667L0.25,-0.417Z" style="fill-rule:nonzero;"/>
                    </g>
                    <g transform="matrix(72,0,0,72,846.225,250.695)">
                        <path d="M0.083,0L0.083,-0.75L0.5,-0.75L0.5,-0.667L0.25,-0.667L0.25,-0.417L0.417,-0.417L0.417,-0.333L0.25,-0.333L0.25,-0.083L0.5,-0.083L0.5,0L0.083,0Z" style="fill-rule:nonzero;"/>
                    </g>
                    <g transform="matrix(72,0,0,72,888.201,250.695)">
                        <path d="M0.083,0L0.083,-0.75L0.417,-0.75C0.462,-0.75 0.501,-0.733 0.534,-0.701C0.567,-0.668 0.583,-0.628 0.583,-0.583L0.583,-0.538C0.583,-0.501 0.57,-0.465 0.545,-0.431C0.52,-0.396 0.477,-0.379 0.417,-0.379L0.5,-0.379C0.523,-0.379 0.542,-0.371 0.559,-0.355C0.575,-0.338 0.583,-0.318 0.583,-0.295L0.583,0L0.417,0L0.417,-0.25C0.417,-0.273 0.409,-0.292 0.393,-0.309C0.376,-0.325 0.356,-0.333 0.333,-0.333L0.25,-0.333L0.25,0L0.083,0ZM0.25,-0.417L0.333,-0.417C0.356,-0.417 0.376,-0.425 0.393,-0.442C0.409,-0.458 0.417,-0.477 0.417,-0.5L0.417,-0.583C0.417,-0.606 0.409,-0.626 0.393,-0.643C0.376,-0.659 0.356,-0.667 0.333,-0.667L0.25,-0.667L0.25,-0.417Z" style="fill-rule:nonzero;"/>
                    </g>
                    <g transform="matrix(72,0,0,72,936.225,250.695)">
                        <path d="M0.5,-0.583L0.417,-0.583C0.41,-0.639 0.383,-0.667 0.338,-0.667C0.309,-0.667 0.287,-0.66 0.272,-0.646C0.257,-0.632 0.25,-0.611 0.25,-0.583C0.25,-0.562 0.258,-0.543 0.274,-0.524L0.451,-0.326C0.484,-0.289 0.5,-0.25 0.5,-0.208L0.5,-0.167C0.5,-0.122 0.484,-0.083 0.451,-0.05C0.418,-0.017 0.379,0 0.333,0L0.25,0C0.195,0 0.153,-0.014 0.125,-0.042C0.097,-0.069 0.083,-0.111 0.083,-0.167L0.167,-0.167L0.167,-0.153C0.167,-0.13 0.176,-0.113 0.193,-0.101C0.21,-0.089 0.229,-0.083 0.25,-0.083C0.279,-0.083 0.301,-0.09 0.314,-0.105C0.327,-0.119 0.333,-0.14 0.333,-0.167C0.333,-0.188 0.325,-0.208 0.309,-0.226L0.132,-0.424C0.099,-0.46 0.083,-0.499 0.083,-0.542L0.083,-0.583C0.083,-0.628 0.099,-0.668 0.132,-0.701C0.165,-0.733 0.204,-0.75 0.25,-0.75L0.333,-0.75C0.438,-0.75 0.493,-0.694 0.5,-0.583Z" style="fill-rule:nonzero;"/>
                    </g>
                </g>
            </g>
        </g>
    </g>
</svg>
